<svg xmlns="http://www.w3.org/2000/svg" width="1600" height="900" viewBox="0 0 1600 900">
  <defs>
    <linearGradient id="g" x1="0" y1="0" x2="1" y2="1">
      <stop offset="0" stop-color="#0b1020"/>
      <stop offset="0.55" stop-color="#131a33"/>
      <stop offset="1" stop-color="#1f2a56"/>
    </linearGradient>
    <radialGradient id="glow" cx="55%" cy="45%" r="55%">
      <stop offset="0" stop-color="#e8c1f0" stop-opacity="0.22"/>
      <stop offset="0.5" stop-color="#4da6ff" stop-opacity="0.18"/>
      <stop offset="1" stop-color="#000000" stop-opacity="0"/>
    </radialGradient>
    <filter id="grain" x="-10%" y="-10%" width="120%" height="120%">
      <feTurbulence type="fractalNoise" baseFrequency="0.8" numOctaves="3" stitchTiles="stitch" />
      <feColorMatrix type="matrix" values="
        1 0 0 0 0
        0 1 0 0 0
        0 0 1 0 0
        0 0 0 0.12 0" />
      <feComposite operator="in" in2="SourceGraphic" />
    </filter>
  </defs>

  <rect width="1600" height="900" fill="url(#g)"/>
  <rect width="1600" height="900" fill="url(#glow)"/>

  <!-- stars -->
  <g fill="#ffffff" opacity="0.9">
    <circle cx="180" cy="160" r="2"/>
    <circle cx="260" cy="420" r="1.5"/>
    <circle cx="520" cy="220" r="1.8"/>
    <circle cx="760" cy="120" r="1.2"/>
    <circle cx="980" cy="260" r="1.6"/>
    <circle cx="1220" cy="180" r="2.2"/>
    <circle cx="1380" cy="380" r="1.3"/>
    <circle cx="1140" cy="520" r="1.5"/>
    <circle cx="860" cy="560" r="1.1"/>
    <circle cx="420" cy="620" r="1.4"/>
    <circle cx="240" cy="720" r="1.2"/>
    <circle cx="1460" cy="700" r="2.0"/>
  </g>

  <!-- frame -->
  <rect x="110" y="110" width="1380" height="680" rx="32" fill="rgba(0,0,0,0.10)" stroke="rgba(255,255,255,0.14)" stroke-width="2"/>
  <path d="M170 725 L1430 725" stroke="rgba(255,255,255,0.14)" stroke-width="2"/>

  <!-- label -->
  <g opacity="0.95">
    <text x="200" y="290" fill="#e8c1f0" font-family="Segoe UI, system-ui, -apple-system, sans-serif" font-size="24" letter-spacing="0.22em">PROJECT IMAGE</text>
    <text x="200" y="345" fill="rgba(255,255,255,0.92)" font-family="Segoe UI, system-ui, -apple-system, sans-serif" font-size="56" font-weight="700">Placeholder 01</text>
    <text x="200" y="410" fill="rgba(255,255,255,0.70)" font-family="Segoe UI, system-ui, -apple-system, sans-serif" font-size="22">Replace with a real render, photo, or diagram.</text>
  </g>

  <rect width="1600" height="900" filter="url(#grain)" opacity="0.9"/>
</svg>
